<svg width="1200" height="630" viewBox="0 0 1200 630" fill="none" xmlns="http://www.w3.org/2000/svg">
  <defs>
    <linearGradient id="bg" x1="0" y1="0" x2="1200" y2="630" gradientUnits="userSpaceOnUse">
      <stop stop-color="#09090B" />
      <stop offset="1" stop-color="#020203" />
    </linearGradient>

    <radialGradient id="glowTop" cx="0" cy="0" r="1" gradientUnits="userSpaceOnUse" gradientTransform="translate(610 0) rotate(90) scale(520 860)">
      <stop stop-color="#6366F1" stop-opacity="0.35" />
      <stop offset="1" stop-color="#000000" stop-opacity="0" />
    </radialGradient>

    <radialGradient id="glowRight" cx="0" cy="0" r="1" gradientUnits="userSpaceOnUse" gradientTransform="translate(1120 510) rotate(90) scale(420 520)">
      <stop stop-color="#A855F7" stop-opacity="0.18" />
      <stop offset="1" stop-color="#000000" stop-opacity="0" />
    </radialGradient>

    <linearGradient id="title" x1="0" y1="0" x2="760" y2="0" gradientUnits="userSpaceOnUse">
      <stop stop-color="#FFFFFF" />
      <stop offset="1" stop-color="#A1A1AA" />
    </linearGradient>

    <linearGradient id="stroke" x1="0" y1="0" x2="1200" y2="0" gradientUnits="userSpaceOnUse">
      <stop stop-color="#FFFFFF" stop-opacity="0.10" />
      <stop offset="1" stop-color="#FFFFFF" stop-opacity="0.04" />
    </linearGradient>

    <filter id="shadow" x="-20%" y="-20%" width="140%" height="140%" filterUnits="objectBoundingBox">
      <feGaussianBlur stdDeviation="16" result="blur" />
      <feColorMatrix
        in="blur"
        type="matrix"
        values="0 0 0 0 0  0 0 0 0 0  0 0 0 0 0  0 0 0 0.55 0"
        result="shadow" />
      <feOffset dy="10" in="shadow" result="offset" />
      <feMerge>
        <feMergeNode in="offset" />
        <feMergeNode in="SourceGraphic" />
      </feMerge>
    </filter>

    <filter id="softGlow" x="-40%" y="-40%" width="180%" height="180%" filterUnits="objectBoundingBox">
      <feGaussianBlur stdDeviation="24" />
    </filter>

    <clipPath id="clipShot">
      <rect x="640" y="150" width="470" height="320" rx="20" />
    </clipPath>

    <style>
      .sans { font-family: ui-sans-serif, system-ui, -apple-system, "Segoe UI", Roboto, Helvetica, Arial; }
      .mono { font-family: ui-monospace, SFMono-Regular, Menlo, Monaco, Consolas, "Liberation Mono", "Courier New", monospace; }
    </style>
  </defs>

  <rect width="1200" height="630" fill="url(#bg)" />
  <rect width="1200" height="630" fill="url(#glowTop)" />
  <rect width="1200" height="630" fill="url(#glowRight)" />

  <g filter="url(#shadow)">
    <rect x="70" y="70" width="1060" height="490" rx="32" fill="#111114" fill-opacity="0.70" stroke="url(#stroke)" />
  </g>

  <!-- subtle grid lines -->
  <g opacity="0.20">
    <path d="M70 330H1130" stroke="#FFFFFF" stroke-opacity="0.10" />
    <path d="M70 440H1130" stroke="#FFFFFF" stroke-opacity="0.07" />
    <path d="M540 70V560" stroke="#FFFFFF" stroke-opacity="0.06" />
  </g>

  <!-- logo mark -->
  <g transform="translate(130 142)">
    <rect x="0" y="0" width="70" height="70" rx="18" fill="#FFFFFF" />
    <g transform="translate(18 18)">
      <rect x="0" y="0" width="34" height="34" rx="10" fill="#0B0B0F" />
      <path d="M17 7C13.686 7 11 9.686 11 13C11 16.314 13.686 19 17 19C20.314 19 23 16.314 23 13C23 9.686 20.314 7 17 7Z" fill="#6366F1" fill-opacity="0.92" />
      <path d="M8 17.5C8 13.358 11.358 10 15.5 10" stroke="#A1A1AA" stroke-opacity="0.70" stroke-width="2" stroke-linecap="round" />
      <path d="M26 17.5C26 21.642 22.642 25 18.5 25" stroke="#A1A1AA" stroke-opacity="0.70" stroke-width="2" stroke-linecap="round" />
    </g>
  </g>

  <!-- headline -->
  <text x="220" y="198" class="sans" font-size="78" font-weight="820" fill="#FFFFFF" letter-spacing="-1">OpenWork</text>
  <text x="220" y="262" class="sans" font-size="42" font-weight="700" fill="url(#title)" letter-spacing="-0.5">The native GUI</text>
  <text x="220" y="306" class="sans" font-size="42" font-weight="700" fill="url(#title)" letter-spacing="-0.5">for OpenCode</text>
  <text x="220" y="352" class="sans" font-size="20" font-weight="520" fill="#A1A1AA" fill-opacity="0.96">Local-first sessions • Plugins • Skills</text>

  <!-- chips -->
  <g transform="translate(220 382)">
    <rect x="0" y="0" width="180" height="36" rx="18" fill="#0B0B0F" fill-opacity="0.95" stroke="#27272A" />
    <circle cx="18" cy="18" r="5" fill="#6366F1" />
    <text x="32" y="23" class="sans" font-size="14" font-weight="650" fill="#E4E4E7">Open-source</text>

    <g transform="translate(194 0)">
      <rect x="0" y="0" width="170" height="36" rx="18" fill="#0B0B0F" fill-opacity="0.95" stroke="#27272A" />
      <circle cx="18" cy="18" r="5" fill="#A855F7" />
      <text x="32" y="23" class="sans" font-size="14" font-weight="650" fill="#E4E4E7">Extensible</text>
    </g>

  </g>

  <!-- screenshot panel -->
  <g>
    <g filter="url(#softGlow)" opacity="0.65">
      <rect x="628" y="138" width="494" height="344" rx="24" fill="#6366F1" fill-opacity="0.18" />
    </g>

    <rect x="640" y="150" width="470" height="320" rx="20" fill="#0B0B0F" stroke="#FFFFFF" stroke-opacity="0.12" />

    <g clip-path="url(#clipShot)">
      <image
        x="640"
        y="150"
        width="470"
        height="320"
        href="{{OG_UI_DATA_URI}}"
        preserveAspectRatio="xMidYMid slice" />
      <rect x="640" y="150" width="470" height="320" fill="#000000" fill-opacity="0.18" />
    </g>

    <!-- window top bar -->
    <g opacity="0.86">
      <rect x="660" y="166" width="70" height="10" rx="5" fill="#FFFFFF" fill-opacity="0.12" />
      <rect x="738" y="166" width="46" height="10" rx="5" fill="#FFFFFF" fill-opacity="0.08" />
    </g>
  </g>

  <!-- footer -->
  <g transform="translate(130 512)">
    <text x="0" y="0" class="mono" font-size="18" fill="#71717A">opencode</text>
    <text x="90" y="0" class="sans" font-size="18" fill="#71717A">+</text>
    <text x="108" y="0" class="mono" font-size="18" fill="#71717A">openwork</text>
  </g>
</svg>
